<svg width="15" height="15" viewBox="0 0 15 15" fill="none" xmlns="http://www.w3.org/2000/svg">
<g clip-path="url(#clip0_105_2795)">
<path d="M7.50638 3.67847C7.37447 3.67847 7.244 3.6852 7.11546 3.69836C6.98691 3.71153 6.86015 3.73104 6.73554 3.75665C6.61094 3.78227 6.48855 3.81398 6.3686 3.85142L6.01656 3.98068L5.68138 4.14253L5.36509 4.33499L5.06955 4.55603L4.79685 4.80375L4.54889 5.07622L4.3276 5.37142L4.1349 5.68742L3.97296 6.02221C3.92428 6.13673 3.88098 6.25412 3.8435 6.37397C3.80602 6.49382 3.7743 6.61616 3.74864 6.74062C3.72298 6.86508 3.70347 6.99171 3.69026 7.12015C3.67704 7.2486 3.67041 7.37893 3.67041 7.51069C3.67041 7.64245 3.67714 7.77278 3.69026 7.90123C3.7033 8.02866 3.72279 8.15535 3.74864 8.28081C3.7743 8.40575 3.80602 8.52761 3.8435 8.64746C3.88098 8.76731 3.92423 8.88465 3.97296 8.99922L4.1349 9.33401L4.3276 9.64996L4.54889 9.94521L4.79685 10.2177L5.06955 10.4654L5.36509 10.6864L5.68138 10.8789L6.01656 11.0407L6.3686 11.17L6.73554 11.2648C6.86112 11.2906 6.98792 11.3101 7.11546 11.3231C7.24534 11.3364 7.37582 11.343 7.50638 11.343C7.63829 11.343 7.76875 11.3362 7.89725 11.3231C8.02479 11.3101 8.15159 11.2906 8.27717 11.2648L8.64416 11.17L8.9962 11.0407L9.33133 10.8789L9.64767 10.6864L9.94321 10.4654L10.216 10.2177L10.4639 9.94521L10.6852 9.64996L10.8779 9.33401L11.0398 8.99922L11.1693 8.64746C11.2068 8.52761 11.2385 8.40527 11.2642 8.28081L11.3226 7.90118C11.3357 7.77273 11.3424 7.64241 11.3424 7.51064C11.3424 7.37888 11.3357 7.24856 11.3226 7.12011C11.3095 6.99269 11.29 6.86602 11.2642 6.74058C11.2385 6.61563 11.2068 6.49382 11.1693 6.37392L11.0398 6.02217L10.8779 5.68737L10.6852 5.37137L10.4639 5.07617L10.216 4.80371L9.94321 4.55599L9.64767 4.33494L9.33133 4.14248L8.9962 3.98063L8.64416 3.85137L8.27717 3.75661L7.89725 3.69832C7.76738 3.68505 7.63692 3.67841 7.50638 3.67842V3.67847ZM7.50638 5.00121C7.5936 5.00121 7.67966 5.00553 7.76443 5.01409L8.01431 5.0519L8.25569 5.11341L8.48683 5.19736L8.70658 5.3026L8.91321 5.42778L9.10639 5.5718L9.28448 5.73336L9.44618 5.91126L9.59034 6.10424L9.71567 6.31116L9.82091 6.53077C9.85253 6.60593 9.88059 6.68296 9.905 6.76172C9.92941 6.84048 9.94993 6.92097 9.96651 7.00295C9.98309 7.08493 9.99534 7.16835 10.0043 7.25307L10.0172 7.51093C10.0172 7.59805 10.0129 7.68407 10.0043 7.76884C9.99578 7.8536 9.98319 7.93703 9.96651 8.01896C9.94984 8.10089 9.92927 8.18138 9.905 8.26019L9.82091 8.49114L9.71567 8.71075L9.59034 8.91762L9.44618 9.11065L9.28448 9.28855L9.10639 9.45011L8.91321 9.59413L8.70658 9.71931L8.48683 9.82454L8.25569 9.9085L8.01431 9.97001L7.76443 10.0078C7.67867 10.0164 7.59253 10.0207 7.50633 10.0207C7.42012 10.0207 7.33397 10.0164 7.24819 10.0078L6.9983 9.97001C6.91628 9.95338 6.83574 9.93281 6.75688 9.9085L6.52574 9.82454L6.30599 9.71931L6.09935 9.59413L5.90618 9.45011L5.72809 9.28855L5.56639 9.11065L5.42222 8.91762L5.2969 8.71075L5.19166 8.49114L5.10757 8.26019L5.04606 8.01896L5.00824 7.76884C4.99964 7.68314 4.99534 7.59706 4.99536 7.51093C4.99534 7.42482 4.99964 7.33876 5.00824 7.25307C5.01674 7.16835 5.02938 7.08488 5.04606 7.00295C5.06256 6.92158 5.08311 6.84109 5.10761 6.76177L5.19171 6.53082L5.29695 6.31121L5.42227 6.10429L5.56643 5.9113L5.72814 5.73341L5.90622 5.57185L6.0994 5.42783L6.30604 5.30265L6.52579 5.19741C6.60142 5.16565 6.67858 5.13763 6.75698 5.11346L6.9984 5.05195C7.08043 5.03533 7.16395 5.02264 7.24828 5.01413C7.33406 5.00554 7.42022 5.00124 7.50643 5.00126L7.50638 5.00121Z" fill="#313332"/>
<path d="M11.498 2.5883C11.4675 2.58831 11.4371 2.58985 11.4068 2.59292C11.3765 2.59598 11.3463 2.60057 11.3165 2.60666C11.2866 2.61275 11.2571 2.62033 11.228 2.62939C11.1989 2.63845 11.1703 2.64897 11.1422 2.66091C11.1142 2.67287 11.0867 2.68623 11.06 2.70094C11.0333 2.71563 11.0073 2.73165 10.9822 2.74895C10.957 2.76626 10.9328 2.78484 10.9095 2.80459C10.8862 2.82433 10.8639 2.84523 10.8427 2.86721C10.8214 2.8892 10.8013 2.91225 10.7824 2.93626C10.7635 2.96028 10.7458 2.98524 10.7293 3.01103C10.7129 3.03681 10.6977 3.06341 10.6839 3.09071C10.6701 3.11803 10.6576 3.14603 10.6466 3.17461C10.6355 3.20318 10.6259 3.23229 10.6178 3.26183C10.6096 3.29137 10.603 3.32129 10.5978 3.3515C10.5926 3.3817 10.5889 3.41214 10.5868 3.44271C10.5852 3.46436 10.5845 3.48606 10.5845 3.50777C10.5845 3.53844 10.586 3.56909 10.589 3.5996C10.5921 3.6301 10.5966 3.66043 10.6027 3.69047C10.6087 3.72051 10.6163 3.75023 10.6253 3.77952C10.6343 3.80881 10.6447 3.83763 10.6566 3.86587C10.6685 3.89412 10.6817 3.92175 10.6963 3.94867C10.7109 3.97558 10.7269 4.00174 10.7441 4.02704C10.7613 4.05234 10.7797 4.07675 10.7993 4.10018C10.8189 4.12364 10.8397 4.14609 10.8616 4.16746C10.8834 4.18881 10.9063 4.20905 10.9302 4.2281C10.954 4.24717 10.9788 4.26502 11.0045 4.28159C11.0301 4.29816 11.0566 4.31342 11.0837 4.32733C11.1108 4.34125 11.1387 4.35379 11.167 4.36491C11.1954 4.37602 11.2243 4.38569 11.2537 4.39389C11.283 4.40208 11.3128 4.40878 11.3428 4.41398C11.3728 4.41919 11.403 4.4229 11.4334 4.42508C11.4549 4.42661 11.4765 4.42738 11.498 4.42738C11.5285 4.42739 11.5589 4.42587 11.5892 4.42282C11.6195 4.41975 11.6497 4.41517 11.6795 4.40907C11.7094 4.40299 11.7389 4.3954 11.768 4.38635C11.7971 4.37728 11.8257 4.36676 11.8538 4.35482C11.8818 4.34288 11.9093 4.32954 11.936 4.31484C11.9627 4.30014 11.9887 4.2841 12.0138 4.26679C12.039 4.24948 12.0632 4.23093 12.0865 4.21119C12.1098 4.19143 12.1321 4.17052 12.1533 4.14852C12.1746 4.12653 12.1947 4.10349 12.2136 4.07947C12.2325 4.05545 12.2503 4.0305 12.2667 4.0047C12.2832 3.9789 12.2983 3.9523 12.3121 3.92498C12.3259 3.89765 12.3384 3.86965 12.3495 3.84107C12.3605 3.8125 12.3701 3.78339 12.3782 3.75386C12.3864 3.72432 12.3931 3.69439 12.3982 3.66419C12.4034 3.63399 12.4071 3.60355 12.4092 3.57298C12.4108 3.55133 12.4115 3.52962 12.4115 3.50791C12.4115 3.47726 12.41 3.44663 12.407 3.41613C12.4039 3.38563 12.3994 3.3553 12.3933 3.32526C12.3873 3.29522 12.3797 3.2655 12.3707 3.23622C12.3617 3.20692 12.3513 3.1781 12.3394 3.14986C12.3275 3.12161 12.3143 3.09398 12.2997 3.06707C12.2851 3.04016 12.2691 3.014 12.2519 2.98869C12.2347 2.96338 12.2163 2.93896 12.1966 2.9155C12.177 2.89205 12.1563 2.8696 12.1345 2.84823C12.1126 2.82687 12.0897 2.80663 12.0658 2.78758C12.042 2.76854 12.0172 2.7507 11.9915 2.73415C11.9659 2.71758 11.9395 2.70231 11.9123 2.6884C11.8852 2.67448 11.8574 2.66194 11.829 2.65082C11.8006 2.63971 11.7717 2.63004 11.7423 2.62184C11.713 2.61364 11.6833 2.60692 11.6532 2.60171C11.6232 2.59651 11.593 2.59282 11.5626 2.59066C11.5411 2.58912 11.5195 2.58835 11.498 2.58835V2.5883Z" fill="#313332"/>
<path d="M6.77905 0.0135675C6.36184 0.0128947 5.98952 0.0146244 5.65506 0.0193337L4.75837 0.0433608C4.49273 0.0548938 4.25803 0.0699337 4.04736 0.0893956C3.94203 0.0991025 3.84265 0.109963 3.74846 0.121928C3.65884 0.133225 3.56945 0.146379 3.48037 0.161381C3.39555 0.175798 3.31506 0.191366 3.23789 0.208281C3.16071 0.225197 3.087 0.243458 3.01588 0.263064C2.94635 0.282236 2.87737 0.303324 2.809 0.326304C2.74202 0.348889 2.67666 0.37282 2.61213 0.398385C2.48305 0.449514 2.35715 0.50689 2.2275 0.571186C2.12774 0.620682 2.03557 0.670803 1.94802 0.723854C1.86046 0.776906 1.77752 0.832938 1.69631 0.893967C1.61268 0.957122 1.53206 1.02418 1.45474 1.09493C1.37392 1.16855 1.29136 1.24952 1.20558 1.34C1.0978 1.45308 1.00414 1.55851 0.921006 1.66197C0.879439 1.71367 0.840515 1.7648 0.80385 1.81622C0.76759 1.86689 0.732926 1.91869 0.699909 1.97153C0.667232 2.02391 0.636285 2.07725 0.606684 2.13213C0.576621 2.18795 0.548208 2.24465 0.521483 2.30215C0.466798 2.41959 0.415764 2.54607 0.364827 2.68725C0.327038 2.79163 0.2932 2.89739 0.263385 3.00431C0.232967 3.11359 0.205912 3.22791 0.181789 3.35155C0.157666 3.47519 0.136618 3.60816 0.118117 3.75521C0.0981804 3.91639 0.0822535 4.07805 0.0703512 4.24002C0.056896 4.41811 0.0457475 4.61408 0.0366172 4.8322L0.0149929 5.55743L0.00336378 6.44148L0 7.51006L0.0098511 9.06399L0.0406057 10.2413L0.0642964 10.7012L0.0938978 11.0823C0.103387 11.185 0.11526 11.2875 0.129506 11.3896C0.142481 11.4803 0.156416 11.5597 0.171409 11.6284C0.201831 11.7682 0.237804 11.9066 0.279243 12.0434C0.31892 12.1745 0.364294 12.3037 0.415236 12.4308C0.465308 12.5552 0.52009 12.6753 0.579677 12.7908C0.639264 12.9063 0.703657 13.0173 0.772855 13.1239C0.842053 13.2306 0.916056 13.3328 0.995057 13.4307C1.07397 13.5286 1.1579 13.6223 1.24652 13.7115C1.33528 13.8009 1.42889 13.886 1.52754 13.9668C1.62737 14.0486 1.73113 14.1254 1.83846 14.197C1.93807 14.2636 2.03663 14.3246 2.13591 14.3806C2.23519 14.4365 2.33534 14.4873 2.43827 14.5335C2.5412 14.5797 2.64673 14.6213 2.75696 14.6586C2.8672 14.696 2.98205 14.7293 3.10343 14.7588C3.22482 14.7883 3.35331 14.8142 3.48931 14.8368C3.6253 14.8594 3.77066 14.8787 3.92598 14.8954C4.08129 14.9121 4.24698 14.9259 4.42502 14.9374C4.60306 14.9489 4.79335 14.9582 4.99782 14.9656C5.31368 14.977 5.79182 14.9837 6.34319 14.9862L8.12817 14.9826L9.81842 14.9589L10.4611 14.9409L10.8798 14.9193C10.9697 14.912 11.0576 14.9034 11.1425 14.8932C11.2273 14.8831 11.311 14.8715 11.3925 14.8584C11.474 14.8452 11.5537 14.8305 11.632 14.8141C11.7094 14.798 11.7863 14.78 11.8628 14.7602C11.9386 14.741 12.0132 14.7191 12.0872 14.6959C12.1611 14.6727 12.2342 14.6476 12.3069 14.6207C12.38 14.5936 12.4525 14.5647 12.5242 14.5341C12.5964 14.5034 12.6686 14.4705 12.7409 14.4356C12.8521 14.3821 12.9416 14.3374 13.0201 14.2939C13.094 14.2533 13.1652 14.208 13.2332 14.1582C13.3003 14.1088 13.367 14.0525 13.4439 13.9817C13.5208 13.9109 13.6079 13.8255 13.7158 13.7176C13.8106 13.6228 13.8905 13.5405 13.9595 13.4656C14.0284 13.3906 14.0865 13.3232 14.1375 13.2582C14.186 13.1966 14.2313 13.1324 14.273 13.0659C14.3137 13.0011 14.3512 12.9337 14.3894 12.859C14.4469 12.7465 14.498 12.6424 14.5438 12.5419C14.5882 12.4451 14.6289 12.3465 14.6655 12.2465C14.7017 12.1472 14.733 12.0463 14.7593 11.944C14.7864 11.8387 14.8098 11.7276 14.8299 11.6058C14.8501 11.4839 14.8672 11.3513 14.882 11.2032C14.8968 11.0551 14.9094 10.8914 14.9204 10.7075L14.9497 10.0901L14.9749 9.32237L14.9929 8.46701L14.9998 7.57263L14.9838 5.81601L14.9623 5.02922L14.933 4.35367L14.8964 3.827C14.8832 3.68043 14.8689 3.56501 14.8537 3.48697C14.8369 3.40074 14.8181 3.31491 14.7974 3.22954C14.7772 3.14648 14.755 3.06391 14.7308 2.98192C14.7072 2.90204 14.6816 2.82277 14.654 2.7442C14.6267 2.66659 14.5978 2.59061 14.5675 2.51627C14.5372 2.44193 14.5045 2.36932 14.4704 2.29825C14.4362 2.22718 14.4005 2.15784 14.3629 2.09008C14.3254 2.02233 14.2863 1.95625 14.2454 1.89181C14.2045 1.82737 14.1619 1.76456 14.1176 1.70344C14.0735 1.64251 14.0275 1.58297 13.9797 1.52492C13.9321 1.46718 13.8827 1.41096 13.8316 1.35634C13.7805 1.30179 13.7277 1.24888 13.6733 1.19767C13.6189 1.14644 13.5628 1.09685 13.5049 1.04889C13.4469 1.00078 13.3873 0.954479 13.3264 0.910065C13.2648 0.865197 13.2018 0.822217 13.1376 0.781184C13.0725 0.739567 13.0062 0.699888 12.9388 0.662202C12.8701 0.623883 12.8004 0.587539 12.7297 0.553214C12.6124 0.496174 12.5039 0.445574 12.3973 0.400692C12.2926 0.356148 12.1859 0.316587 12.0774 0.282142C11.9683 0.247783 11.8548 0.218326 11.7298 0.192905C11.6049 0.167485 11.4686 0.146293 11.3144 0.128272C11.1602 0.110252 10.9881 0.095692 10.7911 0.0835824C10.5942 0.0714727 10.3727 0.0619573 10.1198 0.0542686L9.26032 0.0350472L8.17252 0.0222169L6.77953 0.0136628L6.77905 0.0135675ZM7.5025 1.33515L9.51131 1.34659L10.2691 1.3612C10.4778 1.36706 10.6371 1.37393 10.7304 1.38186C10.852 1.3921 10.9678 1.40493 11.0786 1.4203C11.1849 1.43498 11.2907 1.45324 11.3958 1.47504C11.4967 1.49618 11.5929 1.52021 11.685 1.54731C11.7772 1.57441 11.8651 1.60478 11.9496 1.63837C12.034 1.67196 12.1147 1.70892 12.1924 1.74938C12.2695 1.78953 12.3444 1.83373 12.4169 1.88177C12.4889 1.92958 12.5584 1.9811 12.6259 2.0366C12.6934 2.0921 12.7588 2.15159 12.8226 2.21521C12.89 2.28235 12.9522 2.35073 13.0096 2.42127C13.0667 2.49138 13.1195 2.56486 13.1678 2.64131C13.2166 2.71885 13.2606 2.79934 13.2996 2.8823C13.3393 2.96688 13.3751 3.05626 13.4072 3.15126C13.4393 3.24626 13.4679 3.34723 13.4932 3.45511C13.5197 3.56948 13.542 3.68481 13.5598 3.80086C13.579 3.92388 13.5955 4.05506 13.6094 4.19553C13.6233 4.33599 13.6349 4.48577 13.6444 4.64603C13.652 4.77458 13.6586 4.94421 13.6642 5.14455L13.6783 5.82764L13.6891 7.50088L13.6768 9.17254L13.6621 9.85366L13.6419 10.3491C13.6279 10.581 13.6131 10.776 13.5954 10.9457C13.5865 11.0306 13.5769 11.1091 13.5662 11.1828C13.5562 11.2524 13.5444 11.3217 13.5307 11.3907C13.5182 11.4536 13.5037 11.5161 13.4872 11.5781C13.4714 11.6372 13.4536 11.6959 13.4339 11.7538C13.414 11.8121 13.3924 11.8697 13.3691 11.9266C13.3444 11.9867 13.3184 12.0463 13.291 12.1052C13.2666 12.1579 13.241 12.209 13.2139 12.2589C13.1871 12.3082 13.1587 12.3566 13.1286 12.404C13.0988 12.4509 13.0676 12.4965 13.0349 12.5407C13.0024 12.5847 12.9683 12.6275 12.9327 12.6691C12.8972 12.7105 12.8603 12.7506 12.8219 12.7892C12.7834 12.8279 12.7435 12.8653 12.7022 12.9013C12.6609 12.9373 12.618 12.9719 12.5737 13.0053C12.5293 13.0386 12.4834 13.0706 12.436 13.1013C12.3885 13.132 12.3396 13.1614 12.2891 13.1894C12.2386 13.2175 12.1865 13.2443 12.1329 13.2698C12.0784 13.2957 12.0232 13.32 11.9672 13.3426C11.9094 13.3659 11.8509 13.3876 11.7918 13.4077C11.6717 13.4486 11.545 13.4846 11.4116 13.5156C11.2725 13.5477 11.1322 13.5739 10.991 13.5943C10.9367 13.6022 10.8119 13.6097 10.6331 13.6166L9.95192 13.6355L8.02062 13.6606L5.99918 13.6638L5.20532 13.6553L4.68984 13.6393L4.30974 13.6126C4.19171 13.6026 4.08196 13.5916 3.97912 13.579C3.87629 13.5665 3.78052 13.5525 3.69041 13.5367C3.60503 13.522 3.52017 13.5043 3.43597 13.4839C3.35919 13.4652 3.28321 13.4434 3.20819 13.4186C3.13587 13.3946 3.06672 13.3681 2.99944 13.3391C2.93217 13.31 2.86681 13.2781 2.80209 13.2434C2.73736 13.2086 2.6733 13.1708 2.60852 13.1296C2.55965 13.0986 2.51241 13.0671 2.46696 13.0338C2.4215 13.0005 2.37757 12.9673 2.33529 12.9325C2.293 12.8977 2.25239 12.8619 2.21323 12.825C2.17433 12.7883 2.13676 12.7501 2.10059 12.7107C2.06455 12.6714 2.0301 12.6309 1.99703 12.589C1.96384 12.547 1.93222 12.5037 1.90222 12.4593C1.87178 12.4142 1.84298 12.3681 1.81587 12.3209C1.78848 12.2733 1.76243 12.2241 1.73769 12.1734C1.71252 12.1217 1.68904 12.0691 1.66729 12.0159C1.64518 11.9617 1.62423 11.9058 1.60453 11.848C1.56512 11.7324 1.53052 11.6094 1.50044 11.4782C1.47036 11.347 1.4447 11.2077 1.42298 11.0592C1.40126 10.9107 1.38377 10.7533 1.36983 10.586C1.35955 10.4627 1.35138 10.2707 1.34513 10.0285L1.33206 9.16716L1.33687 6.97132L1.37468 4.87309L1.40352 4.13382L1.41986 3.88947C1.42553 3.82421 1.43139 3.77587 1.4374 3.74684C1.45719 3.65136 1.47714 3.56251 1.49775 3.47933C1.51701 3.40085 1.53843 3.32293 1.562 3.24564C1.58439 3.17269 1.60799 3.10436 1.63322 3.03963C1.65754 2.97693 1.68466 2.91534 1.71448 2.85506C1.7436 2.79643 1.77488 2.7403 1.80885 2.68567C1.84283 2.63103 1.87949 2.57802 1.91947 2.52531C1.95946 2.47259 2.00251 2.42055 2.04937 2.36779C2.09622 2.31502 2.14682 2.26173 2.2017 2.20681C2.26565 2.14248 2.33225 2.08084 2.40131 2.02204C2.46653 1.96656 2.53453 1.91445 2.60506 1.86591C2.67441 1.81786 2.74553 1.77509 2.81958 1.73578C2.89363 1.69647 2.97061 1.66096 3.05158 1.629C3.13255 1.59705 3.21761 1.56845 3.30771 1.54251C3.40237 1.51595 3.49808 1.4933 3.59459 1.47461C3.69608 1.45471 3.80387 1.43736 3.91896 1.42223C4.03405 1.40709 4.15649 1.39402 4.28739 1.38268C4.37869 1.3748 4.53602 1.36778 4.74318 1.36187L5.49715 1.34697L7.50284 1.33472L7.5025 1.33515Z" fill="#313332"/>
</g>
<defs>
<clipPath id="clip0_105_2795">
<rect width="15" height="15" fill="white"/>
</clipPath>
</defs>
</svg>
