<svg width="16" height="13" viewBox="0 0 16 13" fill="none" xmlns="http://www.w3.org/2000/svg">
<path d="M5.45791 11.5985C5.62233 12.0382 5.54129 12.2125 6.018 12.2125C6.38584 12.2125 6.54809 12.0496 6.75346 11.8562L8.52097 10.1913L6.26816 8.57884L13.0909 2.61485C13.3903 2.35735 13.0254 2.23192 12.6279 2.46543L4.20773 7.6114L5.45791 11.5985Z" fill="#E5E5E5"/>
<path d="M12.1976 12.8229C12.8743 13.1846 13.3626 12.9973 13.5312 12.2144L15.9448 1.19643C16.1918 0.236722 15.5671 -0.19871 14.9197 0.0859959L0.746995 5.37995C-0.220415 5.75588 -0.214653 6.27873 0.570679 6.51165L4.20773 7.6114L12.6279 2.46543C13.0254 2.23192 13.3903 2.35735 13.0909 2.61485L6.26816 8.57884L8.52097 10.1913L12.1976 12.8229Z" fill="#313332"/>
</svg>
