<svg width="16" height="16" viewBox="0 0 16 16" fill="none" xmlns="http://www.w3.org/2000/svg">
<path fill-rule="evenodd" clip-rule="evenodd" d="M6.01138 4.59015C5.86294 4.26188 5.70674 4.25523 5.56573 4.24955L5.18611 4.24493C5.05404 4.24493 4.83945 4.29427 4.65805 4.4916C4.64636 4.50431 4.63329 4.51819 4.61908 4.53329C4.4128 4.75244 3.96484 5.22835 3.96484 6.13587C3.96484 7.09855 4.66383 8.02902 4.77107 8.17177C4.77189 8.17286 4.77267 8.1739 4.77342 8.1749C4.78083 8.18477 4.79484 8.20546 4.81525 8.2356C5.0671 8.60752 6.29439 10.4199 8.15649 11.1509C9.66829 11.7445 10.0918 11.6949 10.4275 11.6557C10.4633 11.6515 10.498 11.6474 10.533 11.6443C10.8962 11.6114 11.7047 11.1673 11.8696 10.7069C12.0345 10.2465 12.0347 9.85209 11.9852 9.76962C11.9455 9.70337 11.8525 9.65872 11.7146 9.59257C11.6809 9.57637 11.6445 9.55888 11.6055 9.53948C11.4073 9.44081 10.4338 8.9639 10.2523 8.89805C10.0707 8.8322 9.93878 8.79949 9.8066 8.99682C9.67442 9.19415 9.29534 9.63803 9.17976 9.76962C9.06417 9.90121 8.9488 9.91773 8.75058 9.81917C8.71836 9.80315 8.67452 9.78423 8.62045 9.76089C8.34188 9.64065 7.79164 9.40315 7.15799 8.84067C6.56928 8.31807 6.17189 7.67268 6.0562 7.47545C5.9405 7.27823 6.04391 7.17142 6.14324 7.07318C6.20206 7.01469 6.26976 6.93275 6.33758 6.85067C6.37222 6.80873 6.4069 6.76676 6.44045 6.72785C6.52441 6.63047 6.56069 6.55659 6.60982 6.45655C6.61875 6.43838 6.62809 6.41934 6.63823 6.39915C6.70415 6.26778 6.6713 6.15238 6.62175 6.05382C6.60066 6.01188 6.51884 5.81114 6.41824 5.56432C6.28247 5.2312 6.11249 4.81413 6.01138 4.59015Z" fill="#313332"/>
<path fill-rule="evenodd" clip-rule="evenodd" d="M0 15.9189L1.12453 11.8314C0.429809 10.6323 0.0648951 9.27207 0.0665734 7.88782C0.0684047 3.53842 3.62372 0 7.99268 0C10.1128 0.00107244 12.1028 0.822456 13.5994 2.31347C15.096 3.80449 15.9194 5.78636 15.9187 7.89414C15.9167 12.2432 12.3609 15.7823 7.99257 15.7823H7.98913C6.66272 15.7817 5.35937 15.4505 4.20166 14.822L0 15.9189ZM1.40479 7.88835C1.40608 4.27347 4.36127 1.33251 7.99512 1.33251C8.86059 1.33048 9.71786 1.49938 10.5173 1.82943C11.3168 2.15948 12.0425 2.64411 12.6526 3.25529C13.266 3.86312 13.7523 4.58606 14.0832 5.38225C14.4141 6.17844 14.583 7.03207 14.5803 7.89371C14.5789 11.5088 11.6237 14.4501 7.99265 14.4501H7.99017C6.80779 14.4494 5.64836 14.1334 4.63715 13.5359L4.39639 13.3939L1.90301 14.0448L2.56864 11.6255L2.4119 11.3775C1.75216 10.3324 1.403 9.12273 1.40479 7.88835Z" fill="#313332"/>
</svg>
